PathFileType	4	(X/Y/Z)	C:/Users/opensim2020/Desktop/walking_exp_matlab/subject02_walking11_straight_02.trc																																																																																																																												
DataRate	CameraRate	NumFrames	NumMarkers	Units	OrigDataRate	OrigDataStartFrame	OrigNumFrames																																																																																																																								
100	100	6	42	mm	100	1691	230																																																																																																																								
Frame#	Time	LFHD			RFHD			LBHD			RBHD			C7			T10			CLAV			STRN			RBAK			LSHO			LUPA			LELB			LFRM			LWRA			LWRB			LFIN			RSHO			RUPA			RELB			RFRM			RWRA			RWRB			RFIN			LASI			RASI			LPSI			RPSI			LTHI			LKNE			LTIB			LANK			LHEE			LTOE			RTHI			RKNE			RTIB			RANK			RHEE			RTOE			*39			*40			*41		
		X1	Y1	Z1	X2	Y2	Z2	X3	Y3	Z3	X4	Y4	Z4	X5	Y5	Z5	X6	Y6	Z6	X7	Y7	Z7	X8	Y8	Z8	X9	Y9	Z9	X10	Y10	Z10	X11	Y11	Z11	X12	Y12	Z12	X13	Y13	Z13	X14	Y14	Z14	X15	Y15	Z15	X16	Y16	Z16	X17	Y17	Z17	X18	Y18	Z18	X19	Y19	Z19	X20	Y20	Z20	X21	Y21	Z21	X22	Y22	Z22	X23	Y23	Z23	X24	Y24	Z24	X25	Y25	Z25	X26	Y26	Z26	X27	Y27	Z27	X28	Y28	Z28	X29	Y29	Z29	X30	Y30	Z30	X31	Y31	Z31	X32	Y32	Z32	X33	Y33	Z33	X34	Y34	Z34	X35	Y35	Z35	X36	Y36	Z36	X37	Y37	Z37	X38	Y38	Z38	X39	Y39	Z39	X40	Y40	Z40	X41	Y41	Z41	X42	Y42	Z42
																																																																																																																															
58	0.57	-457.15872	1735.55469	1009.96576	-477.98358	1701.92175	1149.21204	-579.37402	1653.25598	974.45636	-610.81439	1617.41675	1110.22546	-635.7464	1509.46899	1031.13171	-688.62231	1234.14587	1029.50732	-496.00531	1440.20911	1025.81506	-445.28955	1267.74744	1031.73071	-697.70453	1334.07043	1083.00537	-553.26208	1491.93396	854.4657	-535.66296	1295.78931	763.11499	-504.7298	1156.02051	744.71948	-446.41522	1035.15088	744.40936	-355.99902	942.98157	795.46301	-392.15335	925.77112	755.56024	-347.34387	877.90076	758.00818	-571.1394	1463.27478	1221.01208	-624.13159	1273.00037	1291.36206	-626.39423	1127.74988	1306.32117	-611.39258	1009.90125	1331.97961	-568.62537	880.02026	1326.26746	-621.87219	880.75629	1345.73926	-590.6922	815.84625	1357.82227	-457.01376	963.29926	899.84149	-444.31052	970.17615	1156.41772	-661.8288	1012.52386	992.0885	-663.60919	1018.97113	1107.3103	-586.6817	667.01282	851.27411	-665.10974	481.71817	874.72296	-795.56641	336.01907	870.21448	-886.02368	127.64533	891.95459	-927.36444	114.10766	943.05237	-753.72894	37.11493	881.70673	-459.57126	676.00928	1243.42078	-403.61047	473.97464	1206.35693	-414.21576	285.5943	1218.19775	-410.11832	93.09539	1186.37109	-439.21945	40.32358	1129.75977	-256.45767	41.50773	1206.04102	-576.2774	1784.46875	1089.38354	-2845.75903	1034.24646	3357.05981	NaN	NaN	NaN
59	0.58	-450.22134	1735.99829	1014.35779	-470.18793	1702.02832	1153.38049	-571.75427	1654.32776	978.48303	-602.97607	1617.72791	1113.99719	-627.93262	1509.96655	1034.34351	-679.93176	1234.37402	1032.35803	-487.93182	1441.12134	1028.79492	-436.58252	1268.91821	1034.66077	-689.17542	1334.28662	1086.26953	-545.42664	1492.77478	857.51282	-529.90015	1295.89124	766.64008	-500.76019	1155.95117	748.47266	-444.78595	1034.00159	747.34821	-355.88022	939.56793	797.25409	-392.74554	923.59973	757.42517	-348.79208	874.58771	759.47156	-562.73541	1463.92822	1224.07031	-614.34753	1273.19727	1294.28345	-616.20831	1128.17554	1309.27893	-601.6167	1010.29858	1334.88232	-559.53491	880.2337	1329.17542	-612.75659	881.21405	1348.72791	-581.95367	816.10059	1360.72375	-446.87112	963.76404	904.1347	-434.57196	972.02777	1160.0802	-651.79688	1013.01923	994.65424	-654.37946	1019.80438	1110.35315	-576.29272	667.40771	854.24792	-653.43225	482.55911	876.03833	-786.97626	339.72656	871.59454	-881.91644	133.22092	892.35309	-922.75055	121.14155	944.26001	-753.48798	37.12766	881.57513	-448.11386	676.65625	1246.10852	-395.51019	473.88235	1208.03137	-409.45749	285.66235	1219.13599	-408.97144	93.06816	1186.34424	-438.95285	40.33053	1129.58582	-255.74599	40.77494	1206.2168	-568.59827	1784.82886	1094.16626	-2845.1792	1034.27661	3360.25708	NaN	NaN	NaN
60	0.59	-441.9491	1737.43396	1018.82263	-462.35242	1702.2655	1157.47803	-564.14734	1655.50769	982.40039	-595.1535	1618.15308	1117.77332	-620.16754	1510.52258	1037.39929	-671.39984	1234.81348	1035.44653	-479.95331	1442.20288	1031.63831	-427.91559	1270.17957	1037.62158	-680.7489	1334.75952	1089.49597	-537.56104	1493.66809	860.63611	-524.22455	1296.40515	770.20441	-496.75061	1156.17737	752.36627	-443.44879	1033.05859	750.34076	-356.14639	936.72711	798.85468	-393.97202	921.54962	759.56744	-350.90823	871.64606	760.8006	-554.49243	1465.0304	1227.36975	-604.64685	1273.91919	1298.00793	-605.78827	1128.86389	1312.18579	-591.55017	1011.10736	1337.83765	-550.14679	880.71295	1332.03259	-603.28265	882.06073	1351.91406	-572.88641	816.64386	1363.67908	-437.0972	964.49878	908.55182	-424.8811	973.95782	1163.84839	-642.19611	1013.59192	997.37903	-645.16656	1020.30731	1113.35913	-565.56299	667.84259	856.95728	-640.88708	483.31219	877.06042	-777.70996	343.68063	873.06061	-877.05756	139.26912	892.84546	-917.08942	128.46211	945.34637	-753.19232	37.23544	881.44904	-437.21017	676.95087	1248.72754	-388.70563	473.45267	1209.58435	-406.68991	285.3931	1219.41748	-408.41812	93.05979	1185.87854	-438.88126	40.36433	1129.37305	-254.94138	40.2081	1205.77917	-560.81927	1785.33655	1099.25598	NaN	NaN	NaN	NaN	NaN	NaN
61	0.6	-434.86719	1738.37585	1022.91302	-454.47916	1702.61511	1161.59399	-556.54388	1656.90869	986.1842	-587.35364	1618.8208	1121.60938	-612.5802	1511.17102	1040.39941	-662.87927	1235.45105	1038.82043	-471.94168	1443.52905	1034.65601	-419.38412	1271.65039	1040.62817	-672.2901	1335.33069	1092.60791	-530.13837	1494.97913	863.5863	-518.51514	1296.94653	773.7724	-492.91983	1156.6626	756.30347	-442.48672	1032.4751	753.46069	-357.08136	933.64203	800.63409	-395.70041	919.53729	761.64093	-353.802	868.84515	762.11719	-546.47382	1465.94092	1229.63354	-594.92291	1274.70752	1301.24097	-595.38831	1129.89038	1315.17542	-581.22485	1012.17505	1340.94177	-540.44348	881.48981	1334.93799	-593.37622	883.11462	1355.11328	-563.45374	817.4364	1366.70911	-427.47672	965.50867	912.99152	-415.43228	975.90686	1167.74133	-632.88757	1014.22919	1000.25293	-636.00433	1020.61981	1116.42285	-554.39288	668.0473	859.67249	-627.58966	483.87448	877.87756	-767.52234	347.82788	874.63287	-871.16754	145.56058	893.48285	-910.4541	136.25984	946.73145	-752.7879	37.44128	881.4101	-427.54095	677.18628	1251.34229	-383.37283	472.83188	1211.24585	-405.0567	284.87292	1219.52808	-407.89423	93.01093	1185.56836	-438.79523	40.41054	1129.11108	-254.51524	39.85806	1205.74194	-553.1394	1785.98145	1103.76746	NaN	NaN	NaN	NaN	NaN	NaN
62	0.61	-426.92584	1739.6427	1027.25403	-446.76102	1703.26208	1165.28931	-548.89813	1658.35938	989.91577	-579.57147	1619.56641	1125.13916	-604.88647	1511.97864	1043.30017	-654.31622	1236.12488	1042.27722	-463.99991	1444.9585	1037.46777	-410.92908	1273.13391	1043.57214	-663.72656	1335.8634	1095.52356	-522.71277	1496.24878	866.55042	-512.4527	1297.90918	777.43915	-489.15826	1157.30676	760.37177	-441.82358	1031.828	756.70081	-358.08276	931.00061	802.23444	-397.30762	918.18829	763.92963	-356.97772	866.18481	763.39972	-538.60059	1467.57385	1232.97058	-585.12982	1275.5592	1304.00598	-584.66943	1130.80994	1317.94592	-570.70953	1013.31744	1343.68494	-530.37543	882.46661	1337.92212	-583.25476	884.43781	1358.42114	-553.65564	818.46027	1369.7312	-418.28534	966.66119	917.36108	-406.26587	977.51202	1171.51428	-623.9765	1015.11414	1003.34741	-626.9834	1021.02502	1119.59656	-543.17047	668.21942	862.09326	-613.41357	484.20609	878.56873	-756.02234	351.84784	876.06763	-864.31219	152.03914	894.38837	-902.61792	144.05611	948.23181	-752.01129	37.76142	881.62531	-419.43277	677.64978	1254.08655	-379.10684	472.15796	1212.94067	-403.78983	284.49039	1219.82959	-407.72693	93.01277	1185.3457	-438.77798	40.44311	1128.96533	-254.26071	39.62029	1205.73096	-545.45203	1786.8595	1108.23706	NaN	NaN	NaN	NaN	NaN	NaN
63	0.62	-419.05487	1741.07483	1031.18225	-438.93549	1703.87073	1169.03699	-541.24634	1659.95349	993.49237	-571.77551	1620.30249	1128.21155	-597.17755	1512.98767	1046.26086	-645.72473	1236.91479	1045.76733	-456.18741	1446.44556	1040.28992	-402.56253	1274.71997	1046.40381	-655.37195	1336.63855	1098.64392	-515.36725	1497.58643	869.44946	-506.57312	1299.03662	780.88446	-485.4332	1158.06787	764.61658	-441.59317	1031.79309	759.99792	-359.63263	928.44086	803.74951	-399.5166	917.03992	765.95599	-360.75488	864.02881	764.79102	-530.68384	1469.19409	1235.83997	-575.53149	1276.78955	1307.49988	-574.08173	1132.09583	1320.85522	-560.05182	1014.73035	1346.77539	-519.94427	883.74286	1340.82202	-572.74054	885.91608	1361.62231	-543.42114	819.71967	1372.98364	-409.91928	967.94519	921.94476	-397.37613	978.94672	1175.16174	-615.3725	1016.29346	1006.59467	-618.06555	1021.63391	1122.95032	-531.61572	668.22906	864.3783	-598.48578	484.27963	879.31775	-743.34174	355.50235	877.37463	-856.54724	158.58437	895.43481	-893.70819	152.17738	950.15088	-751.28351	38.09004	882.03632	-412.74542	678.28723	1256.41199	-375.38806	471.76743	1214.52515	-402.40918	284.25284	1220.55701	-407.52817	93.03094	1185.20374	-438.72571	40.4618	1128.85327	-254.04092	39.46638	1205.68555	-537.8006	1787.87415	1112.58484	NaN	NaN	NaN	NaN	NaN	NaN
